HIERARCHY
ROOT Hips
{
 OFFSET 0.000000 0.000000 0.000000
 CHANNELS 6 Xposition Yposition Zposition Yrotation Xrotation Zrotation
 JOINT Chest
 {
  OFFSET 0.000000 9.585900 0.002600
  CHANNELS 3 Yrotation Xrotation Zrotation
  JOINT Chest2
  {
   OFFSET 0.000000 9.601200 -0.005300
   CHANNELS 3 Yrotation Xrotation Zrotation
   JOINT Chest3
   {
    OFFSET 0.000000 9.561800 0.000000
    CHANNELS 3 Yrotation Xrotation Zrotation
    JOINT Chest4
    {
     OFFSET 0.000000 9.552100 0.000000
     CHANNELS 3 Yrotation Xrotation Zrotation
     JOINT Neck
     {
      OFFSET 0.000000 14.453000 0.000000
      CHANNELS 3 Yrotation Xrotation Zrotation
      JOINT Head
      {
       OFFSET 0.000000 8.936500 -0.011300
       CHANNELS 3 Yrotation Xrotation Zrotation
       End Site
       {
        OFFSET 0.000000 17.073600 -0.006000
       }
      }
     }
     JOINT RightCollar
     {
      OFFSET -2.921100 9.558500 0.000000
      CHANNELS 3 Yrotation Xrotation Zrotation
      JOINT RightShoulder
      {
       OFFSET -13.519700 0.000000 0.000000
       CHANNELS 3 Yrotation Xrotation Zrotation
       JOINT RightElbow
       {
        OFFSET 0.000000 -29.696600 0.000000
        CHANNELS 3 Yrotation Xrotation Zrotation
        JOINT RightWrist
        {
         OFFSET 0.000000 -24.004700 0.000000
         CHANNELS 3 Yrotation Xrotation Zrotation
         End Site
         {
          OFFSET 0.000000 -17.728500 0.000000
         }
        }
       }
      }
     }
     JOINT LeftCollar
     {
      OFFSET 2.921100 9.558500 0.000000
      CHANNELS 3 Yrotation Xrotation Zrotation
      JOINT LeftShoulder
      {
       OFFSET 13.519700 0.000000 0.000000
       CHANNELS 3 Yrotation Xrotation Zrotation
       JOINT LeftElbow
       {
        OFFSET 0.000000 -29.696600 0.000000
        CHANNELS 3 Yrotation Xrotation Zrotation
        JOINT LeftWrist
        {
         OFFSET 0.000000 -24.004700 0.000000
         CHANNELS 3 Yrotation Xrotation Zrotation
         End Site
         {
          OFFSET 0.000000 -17.728500 0.000000
         }
        }
       }
      }
     }
    }
   }
  }
 }
 JOINT RightHip
 {
  OFFSET -7.771700 -0.012900 -0.001300
  CHANNELS 3 Yrotation Xrotation Zrotation
  JOINT RightKnee
  {
   OFFSET 0.000000 -40.869800 0.001200
   CHANNELS 3 Yrotation Xrotation Zrotation
   JOINT RightAnkle
   {
    OFFSET 0.000000 -39.717900 0.002100
    CHANNELS 3 Yrotation Xrotation Zrotation
    JOINT RightToe
    {
     OFFSET 0.000000 -4.965400 11.033500
     CHANNELS 3 Yrotation Xrotation Zrotation
     End Site
     {
      OFFSET 0.000000 -1.423100 5.872300
     }
    }
   }
  }
 }
 JOINT LeftHip
 {
  OFFSET 7.771700 -0.012900 -0.001300
  CHANNELS 3 Yrotation Xrotation Zrotation
  JOINT LeftKnee
  {
   OFFSET 0.000000 -40.869800 0.001200
   CHANNELS 3 Yrotation Xrotation Zrotation
   JOINT LeftAnkle
   {
    OFFSET 0.000000 -39.717900 0.002100
    CHANNELS 3 Yrotation Xrotation Zrotation
    JOINT LeftToe
    {
     OFFSET 0.000000 -4.965400 11.033500
     CHANNELS 3 Yrotation Xrotation Zrotation
     End Site
     {
      OFFSET 0.000000 -1.423100 5.872300
     }
    }
   }
  }
 }
}
MOTION
Frames: 9
Frame Time: 0.008333
-40.440394 46.527903 15.947729 176.575313 -29.934877 -2.808996 -0.783974 19.130946 1.858652 -0.115109 2.281069 0.257502 -0.200797 3.776681 0.428251 -0.632822 16.586288 1.807931 0.459940 15.979866 -0.259808 0.945443 -6.109437 -0.619275 0.845518 0.733162 -3.095028 6.492897 -9.215069 -16.426834 -46.755187 -53.684450 96.568308 -2.692106 6.128994 -20.038147 -0.731420 -0.522347 2.422514 -3.948593 -4.729058 12.944039 63.440806 -68.548888 -102.250576 -0.450969 12.276478 10.809931 -0.358707 -57.613189 -9.402108 -163.729804 81.873889 -155.403157 -5.838545 -10.642766 -5.322053 -0.094703 -0.170563 0.012331 0.253993 -59.154984 10.214395 -116.223595 81.973800 -120.102288 4.694872 -6.976999 6.153677 0.270230 0.232461 0.137593
-40.447591 46.524975 15.951991 176.600025 -29.929927 -2.810779 -0.806306 19.123896 1.847502 -0.106167 2.272776 0.254761 -0.189024 3.763247 0.421240 -0.647850 16.603677 1.814835 0.459189 15.979630 -0.266524 0.936710 -6.095846 -0.617450 0.842954 0.731110 -3.093791 6.488143 -9.219904 -16.433458 -46.766417 -53.689434 96.581535 -2.690026 6.125824 -20.034512 -0.733941 -0.522105 2.417310 -3.951029 -4.747383 12.941240 63.433591 -68.552082 -102.247203 -0.466930 12.236948 10.798758 -0.317722 -57.618808 -9.451824 -163.624158 81.863775 -155.291522 -5.835458 -10.639425 -5.314262 -0.088183 -0.167036 -0.000137 0.281203 -59.168925 10.165281 -116.157349 81.973131 -120.024685 4.707251 -6.949834 6.161943 0.260561 0.221535 0.132514
-40.453274 46.522709 15.955615 176.610518 -29.931759 -2.812097 -0.804299 19.114691 1.846015 -0.109375 2.276192 0.252536 -0.185909 3.760906 0.418822 -0.635626 16.591061 1.799274 0.446925 15.997618 -0.243215 0.924703 -6.093107 -0.631769 0.823462 0.745149 -3.070202 6.482376 -9.222211 -16.442174 -46.792118 -53.717083 96.604590 -2.712218 6.127252 -20.023688 -0.745084 -0.518999 2.429600 -3.961644 -4.751001 12.941720 63.449476 -68.555686 -102.270272 -0.469590 12.241096 10.795638 -0.306540 -57.618157 -9.466982 -163.541932 81.859786 -155.216301 -5.825912 -10.640225 -5.307719 -0.088704 -0.160355 0.001010 0.284719 -59.170962 10.151256 -116.105870 81.974792 -119.973534 4.719584 -6.936916 6.166659 0.259035 0.218523 0.126092
-40.458201 46.521255 15.958015 176.617976 -29.942961 -2.813368 -0.799380 19.116340 1.841686 -0.117665 2.283222 0.256418 -0.177457 3.754833 0.414019 -0.639416 16.594916 1.800850 0.444584 15.998324 -0.242602 0.918225 -6.093540 -0.630534 0.827971 0.720880 -3.088964 6.464754 -9.201771 -16.428899 -46.806712 -53.720381 96.624634 -2.698974 6.103667 -20.035745 -0.737149 -0.521899 2.430047 -3.974886 -4.759728 12.937269 63.435719 -68.557967 -102.259265 -0.472254 12.242393 10.792309 -0.303966 -57.608367 -9.474087 -163.494485 81.858642 -155.179071 -5.816399 -10.638351 -5.298583 -0.088768 -0.156641 -0.002333 0.284635 -59.161670 10.144325 -116.073584 81.976454 -119.941542 4.722369 -6.932502 6.168332 0.257354 0.220069 0.123626
-40.460296 46.521199 15.958522 176.611400 -29.969396 -2.821055 -0.777463 19.134538 1.851988 -0.117399 2.283189 0.255844 -0.176251 3.754537 0.414664 -0.644403 16.598967 1.801781 0.444581 15.995743 -0.247745 0.904207 -6.093097 -0.618206 0.825552 0.721613 -3.086845 6.458627 -9.201548 -16.437028 -46.821250 -53.721416 96.642329 -2.700530 6.098077 -20.044808 -0.729028 -0.525315 2.430483 -3.988896 -4.757692 12.939118 63.457722 -68.558101 -102.284512 -0.473583 12.245318 10.788322 -0.290880 -57.583255 -9.469128 -163.471541 81.858144 -155.156466 -5.817087 -10.640146 -5.289647 -0.085124 -0.149829 -0.006902 0.275231 -59.137203 10.162674 -116.066200 81.980383 -119.933310 4.754935 -6.912689 6.179361 0.228111 0.200439 0.106921
-40.463995 46.519589 15.961480 176.604598 -29.977731 -2.816961 -0.748411 19.124367 1.854621 -0.118531 2.285931 0.255291 -0.185137 3.760975 0.417098 -0.629778 16.592796 1.788199 0.428238 16.003108 -0.232532 0.886756 -6.095017 -0.602932 0.806505 0.725233 -3.073927 6.450952 -9.193670 -16.428214 -46.827696 -53.721324 96.649143 -2.699288 6.094112 -20.049286 -0.748376 -0.515280 2.452055 -3.991793 -4.774839 12.929559 63.462452 -68.556012 -102.288232 -0.476933 12.251701 10.773162 -0.248428 -57.580761 -9.490953 -163.459173 81.855215 -155.138327 -5.835508 -10.626762 -5.274609 -0.078001 -0.156234 -0.014088 0.290248 -59.131078 10.154594 -116.061020 81.981782 -119.925997 4.764232 -6.914496 6.179287 0.222457 0.203609 0.105865
-40.467854 46.518784 15.962965 176.606960 -29.995347 -2.813020 -0.746344 19.137357 1.850149 -0.120170 2.288341 0.255633 -0.177242 3.753814 0.414773 -0.625094 16.593285 1.787364 0.419276 15.998098 -0.232462 0.868532 -6.091368 -0.588770 0.795895 0.706123 -3.089542 6.446923 -9.167104 -16.418453 -46.850932 -53.710053 96.671855 -2.699781 6.091485 -20.048778 -0.758807 -0.511309 2.457026 -3.994138 -4.794304 12.916310 63.489371 -68.549081 -102.309053 -0.492413 12.279320 10.749040 -0.232369 -57.565059 -9.507090 -163.477777 81.856503 -155.158508 -5.844672 -10.624277 -5.268702 -0.079708 -0.155969 -0.017689 0.301889 -59.113532 10.140252 -116.044123 81.983544 -119.908135 4.771227 -6.916724 6.175966 0.219491 0.207249 0.107658
-40.469765 46.518401 15.964099 176.608826 -30.016251 -2.817482 -0.742294 19.153473 1.853733 -0.116129 2.283889 0.254696 -0.178991 3.757977 0.415418 -0.614153 16.586699 1.784673 0.406905 16.007313 -0.223522 0.861845 -6.094525 -0.586264 0.791168 0.704131 -3.089604 6.433848 -9.152001 -16.425793 -46.849936 -53.692536 96.690248 -2.694646 6.077566 -20.057905 -0.765749 -0.510506 2.456866 -4.002799 -4.802357 12.906675 63.455197 -68.553798 -102.275918 -0.497564 12.276329 10.739612 -0.229885 -57.544539 -9.508543 -163.515529 81.859517 -155.197763 -5.836375 -10.618085 -5.266904 -0.062175 -0.157900 -0.021829 0.298653 -59.095391 10.145590 -116.036687 81.980913 -119.900038 4.779303 -6.912858 6.177994 0.214433 0.205009 0.105272
-40.472470 46.516813 15.967281 176.606867 -30.022641 -2.813174 -0.729173 19.148794 1.851273 -0.115230 2.283393 0.254354 -0.184608 3.763119 0.417028 -0.612302 16.585924 1.784583 0.406927 16.001896 -0.225887 0.849854 -6.088325 -0.575911 0.788043 0.707532 -3.086873 6.425041 -9.149059 -16.459143 -46.865837 -53.660345 96.724324 -2.690855 6.063977 -20.051970 -0.766490 -0.516648 2.455000 -4.009671 -4.805672 12.900594 63.462928 -68.552952 -102.283191 -0.503990 12.291634 10.728305 -0.202631 -57.541255 -9.529010 -163.533434 81.860652 -155.213466 -5.832732 -10.610347 -5.262038 -0.065941 -0.158920 -0.022182 0.307293 -59.090460 10.138066 -115.994844 81.978725 -119.859289 4.787410 -6.909162 6.182670 0.204834 0.206388 0.100851
